<!-- Generated by IcoMoon.io -->
<svg version="1.1" xmlns="http://www.w3.org/2000/svg" width="768" height="768" viewBox="0 0 768 768">
<title>keyboard_return</title>
<g id="icomoon-ignore">
</g>
<path d="M480 384q0 39-28.5 67.5t-67.5 28.5-67.5-28.5-28.5-67.5 28.5-67.5 67.5-28.5 67.5 28.5 28.5 67.5zM384 640.5q105 0 180.75-75.75t75.75-180.75-75.75-180.75-180.75-75.75-180.75 75.75-75.75 180.75 75.75 180.75 180.75 75.75zM384 64.5q132 0 225.75 93.75t93.75 225.75-93.75 225.75-225.75 93.75-225.75-93.75-93.75-225.75 93.75-225.75 225.75-93.75z"></path>
</svg>
