<!-- Generated by IcoMoon.io -->
<svg version="1.1" xmlns="http://www.w3.org/2000/svg" width="585" height="512" viewBox="0 0 585 512">
<title></title>
<g id="icomoon-ignore">
</g>
<path d="M0 36.571c0-20.198 16.373-36.572 36.572-36.572s36.572 16.373 36.572 36.572c0 20.198-16.373 36.572-36.572 36.572s-36.572-16.373-36.572-36.572zM146.286 0h438.857v73.143h-438.857zM146.286 182.857c0-20.198 16.374-36.571 36.572-36.571s36.572 16.374 36.572 36.572c0 20.198-16.374 36.572-36.572 36.572s-36.572-16.374-36.572-36.572zM292.571 146.286h292.572v73.143h-292.572zM146.286 475.429c0-20.198 16.374-36.572 36.572-36.572s36.572 16.373 36.572 36.572c0 20.198-16.374 36.572-36.572 36.572s-36.572-16.373-36.572-36.572zM292.571 438.857h292.572v73.143h-292.572zM292.571 329.143c0-20.198 16.373-36.572 36.572-36.572s36.572 16.373 36.572 36.572c0 20.198-16.373 36.572-36.572 36.572s-36.572-16.373-36.572-36.572zM438.857 292.571h146.286v73.143h-146.286z"></path>
</svg>
