<!-- Generated by IcoMoon.io -->
<svg version="1.1" xmlns="http://www.w3.org/2000/svg" width="768" height="768" viewBox="0 0 768 768">
<title>keyboard_return</title>
<g id="icomoon-ignore">
</g>
<path d="M559.5 459q39 0 81 7.5v48q-30-7.5-81-7.5-90 0-144 31.5v-54q57-25.5 144-25.5zM415.5 399q63-25.5 144-25.5 39 0 81 7.5v48q-30-7.5-81-7.5-90 0-144 31.5v-54zM559.5 336q-90 0-144 31.5v-52.5q60-27 144-27 39 0 81 7.5v49.5q-36-9-81-9zM672 592.5v-369q-49.5-15-112.5-15-97.5 0-175.5 48v367.5q78-48 175.5-48 58.5 0 112.5 16.5zM559.5 144q114 0 177 48v466.5q0 6-5.25 11.25t-11.25 5.25q-4.5 0-7.5-1.5-61.5-33-153-33-97.5 0-175.5 48-64.5-48-175.5-48-81 0-153 34.5-1.5 0-3.75 0.75t-3.75 0.75q-6 0-11.25-4.5t-5.25-10.5v-469.5q64.5-48 177-48 111 0 175.5 48 64.5-48 175.5-48z"></path>
</svg>
