<?xml version="1.0" ?><!DOCTYPE svg  PUBLIC '-//W3C//DTD SVG 1.1//EN'  'http://www.w3.org/Graphics/SVG/1.1/DTD/svg11.dtd'><svg width="25px" height="25px" enable-background="new 0 0 110 110" id="Слой_1" version="1.1" viewBox="0 0 128 128" xml:space="preserve" xmlns="http://www.w3.org/2000/svg" xmlns:xlink="http://www.w3.org/1999/xlink"><g><g><path d="M100.5,120.9l-14.4-11.3c-0.8-0.6-2.1-0.6-2.9,0l-17.7,14c-0.8,0.6-2.1,0.6-2.9,0l-17.7-14    c-0.8-0.6-2.1-0.6-2.9,0l-14.4,11.3c-1.4,1.1-3.9,0.1-3.5-1.5l8.9-25c0.1-0.2,0.2-0.5,0.4-0.7l13.6-14.2c0.8-0.9,2.5-0.9,3.3,0    l12.2,12.8c0.8,0.9,2.5,0.9,3.3,0l12.2-12.8c0.8-0.9,2.5-0.9,3.3,0l13.6,14.2c0.2,0.2,0.3,0.4,0.4,0.7l8.9,25    C104.4,121,101.9,122,100.5,120.9z" fill="#4FC2BD"/></g><g opacity="0.2"><path d="M87.6,97.7c0,4.2-6.8,7.6-15.2,7.6H64c0-4.2,14.1-14.8,16.4-14.1C84.7,92.6,87.6,95,87.6,97.7z" fill="#62345B"/></g><g><path d="M64,125.2c-0.8,0-1.6-0.3-2.2-0.7l-17.7-14c-0.3-0.3-1-0.3-1.4,0l-14.4,11.3c-0.6,0.5-1.4,0.8-2.2,0.8    c-1.1,0-2.2-0.5-2.8-1.3c-0.5-0.6-0.7-1.4-0.5-2.2c0,0,0-0.1,0-0.1l8.9-25c0.1-0.4,0.3-0.8,0.7-1.1L46,78.7c0.6-0.7,1.6-1,2.6-1h0    c1,0,1.9,0.4,2.6,1l12.2,12.8c0.3,0.3,1.2,0.3,1.5,0l12.2-12.8c0.6-0.7,1.6-1,2.6-1l0,0c1,0,1.9,0.4,2.6,1l13.6,14.2    c0.3,0.3,0.5,0.7,0.7,1.1l8.9,25c0,0,0,0.1,0,0.1c0.2,0.8,0,1.6-0.5,2.2c-0.6,0.8-1.7,1.3-2.8,1.3c-0.8,0-1.6-0.3-2.2-0.8    l-14.4-11.3c-0.3-0.3-1-0.3-1.4,0l-17.7,14C65.6,125,64.8,125.2,64,125.2z M43.4,107.8c0.8,0,1.6,0.3,2.2,0.7l17.7,14    c0.3,0.3,1,0.3,1.4,0l17.7-14c1.2-1,3.2-1,4.5,0l14.4,11.3c0.2,0.2,0.5,0.2,0.7,0.2c0.4,0,0.7-0.2,0.8-0.3l-8.8-25    c0,0,0-0.1,0-0.1c0,0,0,0-0.1-0.1L80.2,80.4c-0.3-0.3-1.2-0.3-1.5,0L66.6,93.2c-0.6,0.7-1.6,1-2.6,1s-1.9-0.4-2.6-1L49.3,80.4    c-0.3-0.3-1.2-0.3-1.5,0L34.2,94.6c-0.1,0.1-0.1,0.1-0.1,0.1c0,0,0,0.1,0,0.1l-8.9,24.9c0.1,0.2,0.5,0.4,0.8,0.4    c0.2,0,0.4,0,0.7-0.2l14.4-11.3C41.7,108.1,42.5,107.8,43.4,107.8z" fill="#62345B"/></g><g opacity="0.2"><path d="M64,93c-0.6,0-1.2-0.2-1.7-0.7L50.2,79.5c-0.1-0.1-0.2-0.2-0.4-0.3c0,0-0.1,0-0.1,0    c-0.1-0.1-0.2-0.1-0.4-0.2c0,0,0,0,0,0c-0.1,0-0.3-0.1-0.4-0.1l0,0c-0.2,0-0.3,0-0.5,0l0,0l-5,29.5l-0.1,0.7c0.3,0,0.5,0,0.8,0.1    c0,0,0,0,0,0c0.1,0,0.2,0.1,0.3,0.1c0,0,0,0,0.1,0c0.1,0.1,0.2,0.1,0.3,0.2l17.7,14c0.4,0.3,0.9,0.5,1.5,0.5V94V93z" fill="#62345B"/></g><g><path d="M64,125.2c-0.7,0-1.2-0.6-1.2-1.2V94c0-0.7,0.6-1.2,1.2-1.2s1.2,0.6,1.2,1.2v30    C65.2,124.7,64.7,125.2,64,125.2z" fill="#62345B"/></g><g opacity="0.2"><path d="M79.6,78.9l5,29.5l0.1,0.7c0.5,0,1,0.2,1.4,0.5l14.4,11.3c1.4,1.1,3.9,0.1,3.5-1.5l-3-11.7l-5.9-13.3    c-0.1-0.2-0.2-0.5-0.4-0.7L81.1,79.5C80.8,79.1,80.2,78.9,79.6,78.9z" fill="#62345B"/></g><g><path d="M102.8,42.8C102.8,21.4,85.4,4,64,4S25.2,21.4,25.2,42.8c0,0.7,0,1.4,0.1,2c1.1,21.8,18.8,47.7,36.2,58.5    c0.8,0.5,1.7,0.7,2.6,0.7l0,0c0.9,0,1.7-0.2,2.5-0.7c17.4-10.7,35.1-36.7,36.2-58.5C102.8,44.1,102.8,43.5,102.8,42.8z" fill="#ED9E77"/></g><g opacity="0.2"><path d="M64,4c-1.1,0-2.3,0.1-3.4,0.2C80.4,5.9,96,22.5,96,42.8c0,0.7,0,1.3-0.1,2c-1,21.4-18.2,46.9-35.3,57.9    c0.3,0.2,0.6,0.4,0.9,0.6c0.8,0.5,1.7,0.7,2.6,0.7c0.9,0,1.7-0.2,2.5-0.7c17.4-10.7,35.1-36.7,36.2-58.5c0-0.7,0.1-1.3,0.1-2    C102.8,21.4,85.4,4,64,4z" fill="#62345B"/></g><g><path d="M64,105.2c-1.1,0-2.3-0.3-3.2-0.9C44,94,25.1,68.3,24,44.9c0-0.7-0.1-1.4-0.1-2.1c0-22.1,18-40,40-40    s40,18,40,40c0,0.7,0,1.4-0.1,2.1c-1.1,23.4-20,49.1-36.8,59.5C66.3,104.9,65.2,105.2,64,105.2C64.1,105.2,64,105.2,64,105.2z     M64,5.2c-20.7,0-37.5,16.8-37.5,37.5c0,0.7,0,1.3,0.1,2c1.1,21.9,19.3,47.4,35.6,57.5c0.5,0.3,1.2,0.5,1.9,0.5v1.2l0-1.3    c0.7,0,1.3-0.2,1.8-0.5c16.3-10.1,34.5-35.6,35.6-57.5c0-0.7,0.1-1.3,0.1-2C101.5,22.1,84.7,5.2,64,5.2z" fill="#62345B"/></g><g><circle cx="64" cy="42.8" fill="#FFFFFF" r="30.6"/></g><g><path d="M65.1,23.6l4.7,11.3c0.2,0.4,0.5,0.7,1,0.7l12.2,1c1,0.1,1.4,1.3,0.7,2l-9.3,8c-0.3,0.3-0.5,0.7-0.4,1.1    l2.8,11.9c0.2,1-0.8,1.8-1.7,1.2l-10.5-6.4c-0.4-0.2-0.8-0.2-1.2,0l-10.5,6.4c-0.9,0.5-1.9-0.3-1.7-1.2l2.8-11.9    c0.1-0.4,0-0.9-0.4-1.1l-9.3-8c-0.8-0.7-0.4-1.9,0.7-2l12.2-1c0.4,0,0.8-0.3,1-0.7l4.7-11.3C63.3,22.7,64.7,22.7,65.1,23.6z" fill="#F1EE8D"/></g><g><path d="M75.7,62.3c-0.4,0-0.9-0.1-1.2-0.4L64,55.6L53.6,62c-1,0.6-2.4,0.4-3.1-0.6c-0.5-0.6-0.6-1.3-0.4-2    l2.8-11.9l-9.3-7.9c-0.7-0.6-1-1.6-0.7-2.6c0.3-0.9,1.1-1.6,2.1-1.6l12.2-1l4.7-11.3c0.4-0.9,1.2-1.5,2.2-1.5s1.8,0.6,2.2,1.5    l4.7,11.3l12.2,1c1,0.1,1.8,0.7,2.1,1.6c0.3,0.9,0,1.9-0.7,2.6l-9.3,7.9L78,59.4c0.2,0.7,0,1.5-0.4,2C77.1,62,76.4,62.3,75.7,62.3    z M64,53.1c0.4,0,0.9,0.1,1.2,0.4l10.2,6.3L72.7,48c-0.2-0.9,0.1-1.8,0.8-2.4l9.1-7.8l-12-1c-0.9-0.1-1.7-0.6-2-1.5L64,24.4    l-4.6,11.1c-0.3,0.8-1.1,1.4-2,1.5l-12,1l9.1,7.8c0.7,0.6,1,1.5,0.8,2.4l-2.8,11.7l10.2-6.3C63.1,53.2,63.6,53.1,64,53.1z" fill="#62345B"/></g><g><path d="M64,74.7c-17.6,0-31.9-14.3-31.9-31.9S46.4,10.9,64,10.9s31.9,14.3,31.9,31.9S81.6,74.7,64,74.7z M64,13.4    c-16.2,0-29.4,13.2-29.4,29.4S47.8,72.2,64,72.2S93.4,59,93.4,42.8S80.2,13.4,64,13.4z" fill="#62345B"/></g></g></svg>